<svg width="21" height="22" fill="none" xmlns="http://www.w3.org/2000/svg"><path d="M10.625 13.62a2.624 2.624 0 1 0 0-5.249 2.624 2.624 0 0 0 0 5.25Z" stroke="#C6F806" stroke-linecap="round" stroke-linejoin="round"/><path d="M17.097 13.623a1.444 1.444 0 0 0 .29 1.592l.052.053a1.749 1.749 0 0 1-.568 2.855 1.751 1.751 0 0 1-1.908-.38l-.053-.052a1.444 1.444 0 0 0-1.592-.289 1.443 1.443 0 0 0-.875 1.321v.15a1.75 1.75 0 1 1-3.5 0v-.08A1.443 1.443 0 0 0 8 17.473a1.444 1.444 0 0 0-1.592.288l-.053.053a1.749 1.749 0 0 1-2.856-.568 1.75 1.75 0 0 1 .38-1.908l.053-.053a1.443 1.443 0 0 0 .288-1.592 1.443 1.443 0 0 0-1.32-.875h-.15a1.75 1.75 0 1 1 0-3.5h.08a1.443 1.443 0 0 0 1.32-.944 1.443 1.443 0 0 0-.288-1.592l-.053-.053a1.75 1.75 0 1 1 2.476-2.476l.053.053a1.444 1.444 0 0 0 1.592.288H8a1.444 1.444 0 0 0 .875-1.32v-.15a1.75 1.75 0 1 1 3.5 0v.08a1.445 1.445 0 0 0 .874 1.32 1.444 1.444 0 0 0 1.592-.288l.053-.053a1.75 1.75 0 1 1 2.476 2.476l-.053.053a1.444 1.444 0 0 0-.289 1.592v.07a1.444 1.444 0 0 0 1.321.875h.15a1.75 1.75 0 0 1 0 3.5h-.08a1.445 1.445 0 0 0-1.32.874Z" stroke="#C6F806" stroke-linecap="round" stroke-linejoin="round"/></svg>