<svg width="35" height="83" fill="none" xmlns="http://www.w3.org/2000/svg"><path d="M34.786 31.787a1.59 1.59 0 0 0-.424-.64.887.887 0 0 0-.583-.235H18.621l2.541-28.956A2.442 2.442 0 0 0 20.99.849c-.14-.33-.35-.58-.595-.71A.807.807 0 0 0 19.63.13c-.247.125-.46.37-.602.697L.595 48.99a2.384 2.384 0 0 0-.17.868 2.4 2.4 0 0 0 .146.878c.1.268.247.49.424.646.178.156.38.238.586.238h14.931l-2.013 29c-.02.386.047.771.191 1.093.144.323.356.565.602.687a.807.807 0 0 0 .758-.013c.245-.13.453-.378.592-.706l18.13-48.156a2.39 2.39 0 0 0 .164-.866 2.419 2.419 0 0 0-.15-.872Z" fill="#fff"/></svg>