<svg width="44" height="41" fill="none" xmlns="http://www.w3.org/2000/svg"><path d="M.523 26.2a7.329 7.329 0 0 0 2.982 5.923V20.29A7.335 7.335 0 0 0 .523 26.2Zm40.501-5.918v11.834c3.949-2.728 3.908-9.16 0-11.834Zm-7.765-7.997H11.27a6.22 6.22 0 0 0-6.21 6.212v15.406a6.215 6.215 0 0 0 6.21 6.212h21.99a6.214 6.214 0 0 0 6.212-6.212V18.497a6.22 6.22 0 0 0-6.212-6.212ZM11.627 22.07c.145-4.697 6.959-4.704 7.105 0-.15 4.693-6.959 4.684-7.105 0Zm19.45 9.822a11.802 11.802 0 0 1-8.813 4.162 11.799 11.799 0 0 1-8.812-4.162.775.775 0 0 1 1.195-.986 10.22 10.22 0 0 0 7.618 3.595 10.2 10.2 0 0 0 7.617-3.595.775.775 0 0 1 1.196.986Zm-1.731-6.274c-4.694-.149-4.684-6.96 0-7.105 4.697.145 4.703 6.96 0 7.105Z" fill="#8A31EF"/><path d="M17.178 22.067a2 2 0 1 0-3.999 0 2 2 0 0 0 4 0Zm12.168-2.003a2 2 0 1 0 0 3.999 2 2 0 0 0 0-4ZM21.488 6.382v4.348h1.553V6.383a3.105 3.105 0 1 0-1.553 0v-.001Z" fill="#8A31EF"/></svg>