<svg width="20" height="20" fill="none" xmlns="http://www.w3.org/2000/svg"><path opacity=".3" fill-rule="evenodd" clip-rule="evenodd" d="M19.58 9.887a9.333 9.333 0 0 1-1.002 4.232 9.466 9.466 0 0 1-8.463 5.233 9.332 9.332 0 0 1-3.856-.822 1.062 1.062 0 0 0-.771-.048l-4.055 1.351A1 1 0 0 1 .168 18.57l1.352-4.055a1.062 1.062 0 0 0-.048-.771A9.332 9.332 0 0 1 .65 9.887a9.465 9.465 0 0 1 5.234-8.463A9.332 9.332 0 0 1 10.115.422h.556A9.443 9.443 0 0 1 19.58 9.33v.557ZM5.95 8.44c0-.442.359-.801.802-.801h7.215a.802.802 0 0 1 0 1.603H6.752a.802.802 0 0 1-.802-.802Zm.802 3.207a.802.802 0 0 0 0 1.604h7.215a.802.802 0 0 0 0-1.604H6.752Z" fill="#fff"/></svg>