<svg width="1517" height="473" fill="none" xmlns="http://www.w3.org/2000/svg"><path d="M326.06 187.051c22.705 0 41.665 2.578 56.879 7.734 15.214 5.157 27.386 12.658 36.515 22.268 9.128 9.609 15.683 21.33 19.428 35.159 3.744 13.828 5.617 29.063 5.617 45.939v160.324c-11.001 2.344-26.45 5.156-45.878 8.438-19.662 3.281-43.303 4.923-71.157 4.923-17.554 0-33.471-1.642-47.75-4.689-14.278-3.047-26.683-8.203-36.983-15.235-10.298-7.032-18.257-16.174-23.641-27.657-5.617-11.486-8.192-25.316-8.192-41.957 0-15.939 3.278-29.299 9.598-40.315 6.319-11.017 14.979-19.924 25.512-26.487 10.768-6.562 22.94-11.25 36.749-14.297 13.81-2.813 28.089-4.454 42.835-4.454 10.065 0 18.96.469 26.684 1.406 7.723.938 14.043 1.877 18.959 3.283v-7.267c0-13.125-3.978-23.673-11.937-31.643-7.958-7.969-21.769-11.954-41.196-11.954-13.108 0-25.983.938-38.621 2.813-12.64 1.876-23.642 4.453-33.005 7.969l-9.83-62.114c4.448-1.406 10.065-2.812 16.853-4.453 6.788-1.64 14.044-2.812 22.002-4.218 7.959-1.173 16.15-2.344 25.045-3.048 7.725 0 16.385-.468 25.514-.468Zm6.085 225.483c7.491 0 14.747-.233 21.769-.469 6.788-.233 12.405-.937 16.619-1.641v-58.362c-3.043-.704-7.724-1.406-14.044-2.11-6.085-.704-11.937-.937-17.086-.937-7.258 0-14.045.468-20.365 1.406-6.32.937-11.937 2.578-16.853 4.922-4.915 2.345-8.66 5.626-11.469 9.844-2.808 4.22-4.214 9.377-4.214 15.47 0 12.189 3.98 20.392 12.172 25.08 8.192 4.454 19.428 6.797 33.471 6.797Zm434.427-82.271c0 21.798-3.277 41.253-9.597 59.066-6.32 17.58-15.682 32.582-27.621 45.004-11.937 12.423-26.918 22.033-44.472 28.595-17.556 6.799-37.452 10.079-59.922 10.079-9.364 0-18.959-.468-29.259-1.406-10.065-.937-20.129-1.874-29.961-3.282-9.83-1.406-19.193-3.046-28.087-4.922-8.895-1.875-16.853-3.985-23.641-5.859V77.356l77.008-12.422v135.478c8.661-3.751 17.555-6.798 26.918-8.673 9.362-2.11 19.193-3.048 29.96-3.048 19.195 0 36.281 3.283 51.027 10.08 14.747 6.797 27.152 16.172 37.217 28.595 10.065 12.422 17.556 27.424 22.705 44.768 5.149 17.345 7.725 36.8 7.725 58.129Zm-78.648-2.108c0-49.691-18.257-74.536-54.772-74.536-7.958 0-15.682.937-23.406 3.045-7.725 2.11-14.045 4.689-18.96 7.736v140.166c3.744.702 8.66 1.406 14.512 1.875 5.852.468 12.172.703 19.194.703 21.067 0 36.749-7.267 47.515-21.799 10.533-14.298 15.917-33.284 15.917-57.19Zm369.836 128.902c-13.11 3.75-29.96 7.266-50.56 10.548-20.598 3.281-42.365 4.922-65.07 4.922-23.173 0-42.366-3.047-57.582-9.375-15.214-6.095-27.386-15.002-36.514-26.018-8.894-11.251-15.214-24.611-19.194-40.081-3.745-15.47-5.617-32.581-5.617-51.097V194.539h77.009v142.276c0 24.845 3.276 42.658 9.83 53.675 6.553 11.017 18.725 16.641 36.749 16.641 5.617 0 11.469-.234 17.556-.702 6.085-.469 11.702-1.173 16.618-1.875V194.539h77.005v262.518h-.23Zm180.68 14.309c-22.47-.233-40.49-2.812-54.54-7.265-14.04-4.454-25.04-10.782-33-18.986-8.19-8.203-13.58-17.814-16.62-29.533-3.04-11.485-4.45-24.611-4.45-39.144V77.356l77.01-12.422v296.269c0 6.797.47 13.127 1.64 18.517.94 5.625 3.04 10.078 5.85 14.063 2.81 3.751 7.26 6.798 12.64 9.377 5.62 2.343 12.87 3.984 22.24 4.687l-10.77 63.519Zm160.1-284.315c22.71 0 41.66 2.578 56.89 7.734 15.21 5.157 27.38 12.658 36.51 22.268 9.13 9.609 15.68 21.33 19.42 35.159 3.75 13.828 5.62 29.063 5.62 45.939v160.324c-11 2.344-26.44 5.156-45.88 8.438-19.66 3.281-43.3 4.923-71.15 4.923-17.56 0-33.47-1.642-47.75-4.689-14.28-3.047-26.69-8.203-36.98-15.235-10.3-7.032-18.26-16.174-23.88-27.657-5.62-11.486-8.19-25.316-8.19-41.957 0-15.939 3.27-29.299 9.59-40.315 6.32-11.017 14.99-19.924 25.52-26.487 10.76-6.562 22.94-11.25 36.75-14.297 13.81-2.813 28.09-4.454 42.83-4.454 10.07 0 18.96.469 26.69 1.406 7.72.938 14.04 1.877 18.95 3.283v-7.267c0-13.125-3.98-23.673-11.94-31.643-7.95-7.969-21.76-11.954-41.19-11.954-13.11 0-25.98.938-38.62 2.813-12.64 1.876-23.87 4.453-33 7.969l-9.83-62.114c4.44-1.406 10.06-2.812 16.85-4.453 6.79-1.64 14.04-2.812 22-4.218 7.96-1.173 16.39-2.344 25.05-3.048 7.95 0 16.85-.468 25.74-.468Zm6.09 225.483c7.49 0 14.75-.233 21.77-.469 6.79-.233 12.4-.937 16.62-1.641v-58.362c-3.05-.704-7.73-1.406-14.05-2.11-6.08-.704-11.93-.937-17.08-.937-7.26 0-14.05.468-20.37 1.406-6.32.937-11.94 2.578-16.85 4.922-4.92 2.345-8.66 5.626-11.47 9.844-2.81 4.22-4.21 9.377-4.21 15.47 0 12.189 3.98 20.392 12.17 25.08 8.19 4.454 19.42 6.797 33.47 6.797ZM164.563 0c-32.535 0-58.751 26.252-58.751 58.832s26.216 58.832 58.751 58.832c32.536 0 58.753-26.252 58.753-58.832S197.099 0 164.563 0Z" fill="#F5EBFE"/><path d="M77.009 192.181V5.371c-19.428 4.922-35.11 13.595-47.282 26.486C9.83 52.484 0 80.377 0 115.535v346.194h77.009V256.403h95.032v-64.222H77.009Z" fill="#F5EBFE"/></svg>