<svg width="122" height="38" fill="none" xmlns="http://www.w3.org/2000/svg"><g clip-path="url(#a)" fill="#fff"><path d="M26.223 15.027c1.825 0 3.35.208 4.574.622 1.223.414 2.202 1.017 2.936 1.789.735.772 1.262 1.713 1.563 2.824.3 1.111.452 2.335.452 3.691v12.88a96.77 96.77 0 0 1-3.69.678c-1.581.264-3.482.395-5.723.395-1.411 0-2.692-.131-3.84-.376-1.148-.245-2.146-.66-2.974-1.224a5.45 5.45 0 0 1-1.901-2.222c-.452-.923-.66-2.034-.66-3.37 0-1.281.264-2.355.773-3.24a6.009 6.009 0 0 1 2.052-2.128c.866-.527 1.844-.903 2.955-1.148a17.242 17.242 0 0 1 3.445-.358c.81 0 1.525.038 2.146.113.62.075 1.13.15 1.524.264v-.584c0-1.055-.32-1.902-.96-2.542-.64-.64-1.75-.96-3.313-.96-1.054 0-2.09.075-3.105.225-1.017.151-1.902.358-2.655.64l-.79-4.99c.357-.113.81-.225 1.355-.357.546-.132 1.13-.226 1.77-.34.64-.093 1.298-.188 2.014-.244.62 0 1.317-.038 2.052-.038Zm.489 18.115c.602 0 1.186-.019 1.75-.037.546-.02.998-.076 1.337-.132v-4.689a10.822 10.822 0 0 0-1.13-.17 12.06 12.06 0 0 0-1.373-.075c-.584 0-1.13.038-1.638.113-.509.075-.96.207-1.356.396a2.234 2.234 0 0 0-.922.79c-.226.34-.339.754-.339 1.243 0 .98.32 1.639.979 2.015.659.358 1.562.546 2.692.546Zm34.935-6.609c0 1.751-.263 3.314-.771 4.745a10.082 10.082 0 0 1-2.222 3.616c-.96.998-2.165 1.77-3.576 2.297-1.412.546-3.012.81-4.82.81a25.93 25.93 0 0 1-2.352-.113c-.81-.075-1.62-.15-2.41-.264a34.896 34.896 0 0 1-2.259-.395 31.341 31.341 0 0 1-1.901-.471V6.215l6.193-.998V16.1a10.747 10.747 0 0 1 2.165-.697c.753-.17 1.543-.245 2.41-.245 1.543 0 2.917.264 4.103.81s2.184 1.3 2.993 2.297c.81.998 1.412 2.204 1.826 3.597.414 1.393.621 2.956.621 4.67Zm-6.325-.17c0-3.991-1.468-5.988-4.405-5.988-.64 0-1.26.076-1.882.245-.621.17-1.13.377-1.525.622v11.26c.301.057.697.113 1.167.15.471.038.98.057 1.544.057 1.694 0 2.955-.583 3.821-1.75.847-1.15 1.28-2.675 1.28-4.596ZM85.065 36.72c-1.054.3-2.41.583-4.066.846a33.347 33.347 0 0 1-5.233.396c-1.864 0-3.407-.245-4.631-.753-1.224-.49-2.202-1.205-2.937-2.09-.715-.904-1.223-1.978-1.543-3.22-.301-1.243-.452-2.618-.452-4.105V15.629h6.193v11.43c0 1.996.264 3.427.79 4.312.528.885 1.507 1.337 2.956 1.337a18.746 18.746 0 0 0 2.749-.206V15.628h6.193v21.09h-.019Zm14.533 1.149c-1.807-.019-3.257-.226-4.386-.584-1.13-.358-2.014-.866-2.654-1.525-.66-.66-1.092-1.431-1.337-2.373-.245-.922-.358-1.977-.358-3.145V6.215l6.194-.998v23.802c0 .546.037 1.054.131 1.487.076.452.245.81.47 1.13.227.301.584.546 1.017.753.452.189 1.036.32 1.789.377l-.866 5.103Zm12.878-22.842c1.826 0 3.35.208 4.574.622 1.224.414 2.202 1.017 2.937 1.789.734.772 1.261 1.713 1.561 2.824.302 1.111.453 2.335.453 3.691v12.88c-.885.188-2.127.414-3.69.678-1.582.264-3.482.395-5.722.395-1.412 0-2.692-.131-3.841-.376-1.148-.245-2.146-.66-2.974-1.224a5.642 5.642 0 0 1-1.92-2.222c-.452-.923-.659-2.034-.659-3.37 0-1.281.264-2.355.772-3.24a6.008 6.008 0 0 1 2.052-2.128c.866-.527 1.845-.903 2.955-1.148a17.245 17.245 0 0 1 3.445-.358c.81 0 1.525.038 2.146.113.621.075 1.13.15 1.524.264v-.584c0-1.055-.32-1.902-.959-2.542-.64-.64-1.751-.96-3.313-.96-1.054 0-2.09.075-3.106.225-1.017.151-1.92.358-2.654.64l-.791-4.99c.358-.113.809-.225 1.355-.357.546-.132 1.13-.226 1.77-.34a31.56 31.56 0 0 1 2.014-.244c.64 0 1.355-.038 2.071-.038Zm.489 18.115c.602 0 1.186-.019 1.751-.037.546-.02.997-.076 1.337-.132v-4.689a10.91 10.91 0 0 0-1.13-.17c-.49-.056-.96-.075-1.374-.075-.584 0-1.13.038-1.638.113-.508.075-.96.207-1.355.396a2.231 2.231 0 0 0-.923.79c-.226.34-.339.754-.339 1.243 0 .98.32 1.639.979 2.015.659.358 1.563.546 2.692.546ZM13.233 0a4.717 4.717 0 0 0-4.725 4.726 4.717 4.717 0 0 0 4.725 4.727 4.717 4.717 0 0 0 4.725-4.727A4.717 4.717 0 0 0 13.233 0Z"/><path d="M6.193 15.44V.432C4.631.827 3.37 1.524 2.391 2.559.79 4.217 0 6.457 0 9.282v27.813h6.193V20.599h7.643v-5.16H6.193Z"/></g><defs><clipPath id="a"><path fill="#fff" d="M0 0h122v38H0z"/></clipPath></defs></svg>