<svg width="189" height="59" fill="none" xmlns="http://www.w3.org/2000/svg"><path fill-rule="evenodd" clip-rule="evenodd" d="M20.503.246a7.3 7.3 0 0 0-7.32 7.308 7.3 7.3 0 0 0 7.32 7.308 7.3 7.3 0 0 0 7.32-7.308 7.3 7.3 0 0 0-7.32-7.308ZM95.505 41.27c0 2.708-.408 5.124-1.195 7.337-.788 2.184-1.954 4.047-3.442 5.59-1.487 1.543-3.353 2.737-5.54 3.552-2.188.844-4.666 1.252-7.466 1.252-1.167 0-2.362-.058-3.645-.175-1.254-.116-2.508-.233-3.733-.407a54.264 54.264 0 0 1-3.5-.612 48.621 48.621 0 0 1-2.945-.727V9.856l9.594-1.543V25.14c1.08-.466 2.188-.845 3.354-1.077 1.167-.263 2.391-.379 3.733-.379 2.391 0 4.52.408 6.357 1.252 1.838.844 3.383 2.009 4.637 3.552 1.254 1.543 2.187 3.406 2.829 5.56.641 2.155.962 4.572.962 7.221Zm-9.798-.262c0-6.172-2.275-9.258-6.824-9.258-.992 0-1.954.116-2.916.378-.963.262-1.75.583-2.363.961V50.5c.467.088 1.08.175 1.808.233.73.059 1.517.088 2.392.088 2.624 0 4.578-.903 5.92-2.708 1.312-1.776 1.983-4.134 1.983-7.104ZM40.62 23.48c2.83 0 5.191.32 7.087.961 1.895.64 3.412 1.572 4.55 2.766 1.136 1.194 1.953 2.65 2.42 4.367.466 1.718.7 3.61.7 5.707v19.914c-1.371.291-3.296.64-5.716 1.048-2.45.408-5.395.612-8.866.612-2.187 0-4.17-.204-5.949-.583-1.779-.378-3.324-1.018-4.608-1.892a8.431 8.431 0 0 1-2.945-3.436c-.7-1.426-1.02-3.144-1.02-5.211 0-1.98.408-3.64 1.195-5.008a9.298 9.298 0 0 1 3.179-3.29c1.341-.815 2.858-1.397 4.578-1.776 1.72-.35 3.5-.553 5.337-.553 1.254 0 2.362.058 3.325.175.962.116 1.75.233 2.362.407v-.902c0-1.63-.496-2.94-1.488-3.93-.991-.99-2.712-1.486-5.132-1.486-1.633 0-3.237.117-4.812.35-1.575.233-2.945.553-4.112.99l-1.225-7.716c.554-.174 1.254-.349 2.1-.553.703-.17 1.447-.298 2.247-.438h.002l.492-.086c.992-.145 2.012-.29 3.12-.378.462 0 .95-.014 1.458-.028.552-.015 1.129-.03 1.721-.03Zm.758 28.009c.934 0 1.838-.03 2.713-.058a15.922 15.922 0 0 0 2.07-.204v-7.25c-.379-.087-.962-.174-1.75-.262a18.707 18.707 0 0 0-2.128-.116c-.904 0-1.75.058-2.538.174-.787.117-1.487.32-2.1.612a3.458 3.458 0 0 0-1.428 1.223c-.35.524-.525 1.164-.525 1.921 0 1.514.496 2.533 1.516 3.115 1.02.554 2.42.845 4.17.845Zm84.105 6.84c2.566-.408 4.666-.845 6.299-1.31h.029V24.41h-9.594v26.087c-.613.087-1.312.175-2.071.233-.758.058-1.487.087-2.187.087-2.245 0-3.762-.699-4.578-2.067-.817-1.368-1.225-3.581-1.225-6.667V24.41h-9.595v18.808c0 2.3.234 4.426.7 6.347.496 1.922 1.284 3.581 2.392 4.979 1.137 1.368 2.653 2.475 4.549 3.232 1.896.786 4.287 1.164 7.174 1.164 2.829 0 5.541-.204 8.107-.611Zm28.813.468c-2.799-.029-5.045-.35-6.795-.902-1.75-.553-3.12-1.34-4.112-2.359-1.02-1.019-1.691-2.212-2.07-3.668-.379-1.427-.554-3.057-.554-4.862V9.856l9.594-1.543v36.8c0 .845.058 1.63.204 2.3.117.7.379 1.252.729 1.747.35.466.904.845 1.575 1.165.7.291 1.604.495 2.77.582l-1.341 7.89Zm27.035-34.356c-1.898-.64-4.259-.96-7.088-.96-.569 0-1.139.015-1.692.03h-.001c-.523.014-1.033.028-1.515.028a48.235 48.235 0 0 0-3.12.378l-.494.086c-.8.14-1.544.269-2.247.438-.846.204-1.546.379-2.1.553l1.225 7.716c1.137-.437 2.537-.757 4.112-.99a32.833 32.833 0 0 1 4.812-.35c2.42 0 4.141.495 5.132 1.485.991.99 1.487 2.3 1.487 3.93v.903c-.612-.174-1.4-.29-2.362-.407a27.981 27.981 0 0 0-3.324-.175c-1.837 0-3.616.204-5.337.553-1.721.379-3.237.961-4.578 1.776a9.29 9.29 0 0 0-3.179 3.29c-.788 1.369-1.196 3.028-1.196 5.008 0 2.067.321 3.785 1.021 5.212a8.724 8.724 0 0 0 2.974 3.435c1.284.873 2.829 1.514 4.608 1.892 1.779.379 3.762.583 5.949.583 3.471 0 6.415-.204 8.865-.612 2.421-.407 4.345-.757 5.716-1.048V37.281c0-2.096-.233-3.989-.7-5.707-.466-1.717-1.282-3.173-2.42-4.367s-2.653-2.125-4.548-2.766Zm-3.618 26.99c-.874.029-1.778.058-2.712.058-1.749 0-3.149-.291-4.17-.845-1.02-.582-1.516-1.6-1.516-3.115 0-.757.175-1.397.525-1.922.35-.523.816-.931 1.429-1.222.612-.291 1.312-.495 2.099-.612a17.377 17.377 0 0 1 2.537-.174c.642 0 1.371.029 2.129.116.788.087 1.371.175 1.751.262v7.25c-.526.087-1.225.175-2.072.204ZM9.594.913v23.204h11.84v7.978H9.594V57.6H0V14.598C0 10.23 1.225 6.766 3.704 4.204c1.516-1.601 3.47-2.679 5.89-3.29Z" fill="url(#a)"/><defs><linearGradient id="a" x1="-3.893" y1="11.218" x2="185.109" y2="58.999" gradientUnits="userSpaceOnUse"><stop stop-color="#9643F5"/><stop offset=".455" stop-color="#B16FFC"/><stop offset="1" stop-color="#7C2DD6"/></linearGradient></defs></svg>