<svg width="1920" height="1161" fill="none" xmlns="http://www.w3.org/2000/svg"><g opacity=".4"><mask id="b" style="mask-type:alpha" maskUnits="userSpaceOnUse" x="-369" y="0" width="2658" height="1161"><path stroke="#fff" d="M956.969 0v1161M872.086 0v1161M787.195 0v1161M702.312 0v1161M617.422 0v1161M532.535 0v1161M1890.72 0v1161M447.652 0v1161M1805.83 0v1161M362.766 0v1161M1720.95 0v1161M277.875 0v1161M1636.06 0v1161M192.992 0v1161M1551.18 0v1161M108.102 0v1161M1466.29 0v1161M23.219 0v1161M1381.4 0v1161M1296.52 0v1161M1211.63 0v1161M1126.74 0v1161M1041.86 0v1161m1246.25-82.62H-368.127m2656.237-84.882H-368.127m2656.237-84.887H-368.127m2656.237-84.886-2656.237-.001m2656.237-84.886H-368.127m2656.237-84.887H-368.127m2656.237-84.887H-368.127M2288.11 484.18H-368.127m2656.237-84.887H-368.127m2656.237-84.887H-368.127M2288.11 229.52l-2656.237-.001m2656.237-84.886H-368.127M2288.11 59.746H-368.127"/></mask><g filter="url(#a)" mask="url(#b)"><ellipse cx="960.007" cy="580.5" rx="1172.49" ry="477.045" fill="url(#c)"/></g></g><defs><radialGradient id="c" cx="0" cy="0" r="1" gradientUnits="userSpaceOnUse" gradientTransform="matrix(0 477.045 -1172.49 0 960.007 580.5)"><stop stop-color="#D9D9D9" stop-opacity=".4"/><stop offset="1" stop-color="#D9D9D9" stop-opacity=".13"/></radialGradient><filter id="a" x="-603.888" y="-287.945" width="3127.79" height="1736.89" filterUnits="userSpaceOnUse" color-interpolation-filters="sRGB"><feFlood flood-opacity="0" result="BackgroundImageFix"/><feBlend in="SourceGraphic" in2="BackgroundImageFix" result="shape"/><feGaussianBlur stdDeviation="195.7" result="effect1_foregroundBlur_2746_799"/></filter></defs></svg>