<svg width="38" height="38" fill="none" xmlns="http://www.w3.org/2000/svg"><path d="M37.096 27.715v5.573a3.714 3.714 0 0 1-4.05 3.715 36.761 36.761 0 0 1-16.03-5.703A36.224 36.224 0 0 1 5.87 20.155 36.761 36.761 0 0 1 .167 4.05 3.715 3.715 0 0 1 3.864 0h5.573a3.715 3.715 0 0 1 3.715 3.195 23.85 23.85 0 0 0 1.3 5.22 3.716 3.716 0 0 1-.836 3.92l-2.359 2.358A29.722 29.722 0 0 0 22.402 25.84l2.36-2.36a3.715 3.715 0 0 1 3.919-.835 23.85 23.85 0 0 0 5.22 1.3 3.715 3.715 0 0 1 3.195 3.77Z" fill="#fff"/></svg>