<svg width="184" height="193" fill="none" xmlns="http://www.w3.org/2000/svg"><path d="M34.4 83.51a26.096 26.096 0 0 0-14.36 13.394L0 50.383 112.575 1.892c8.839-3.808 19.083.249 22.878 9.062l48.34 112.224-46.666 20.101c5.628 2.597 10.351 7.19 12.992 13.321 5.826 13.526-.731 29.28-14.637 34.659-12.633 4.887-27.113-.834-32.943-13.014a25.92 25.92 0 0 1-1.192-19.553l-46.132 19.872-19.81-45.989a26.09 26.09 0 0 0 18.633-.796c13.569-5.845 19.675-21.778 13.282-35.197-5.808-12.19-20.278-17.936-32.92-13.072Z" fill="#fff"/></svg>