<svg width="199" height="175" fill="none" xmlns="http://www.w3.org/2000/svg"><path d="M150.555 125.242a26.097 26.097 0 0 1-.07 19.637l47.749-16.907-40.911-115.544C154.11 3.355 144.174-1.404 135.129 1.8L19.944 42.584l16.96 47.898c-5.73-2.365-12.309-2.71-18.602-.482C4.42 94.916-2.684 110.432 2.818 124.29c4.998 12.59 19.034 19.327 31.931 15.328a25.915 25.915 0 0 0 15.157-12.411l16.765 47.35 47.203-16.713a26.09 26.09 0 0 1-12.077-14.212c-4.931-13.927 2.61-29.233 16.8-33.66 12.89-4.022 26.938 2.691 31.958 15.271Z" fill="#fff"/></svg>