<svg width="423" height="248" fill="none" xmlns="http://www.w3.org/2000/svg"><path d="M358.991 99.93c-5.55-35.523-36.346-62.787-73.403-62.787-13.941 0-27.338 3.857-38.957 11.051C228.955 18.486 197.131 0 161.778 0 107.164 0 62.73 44.434 62.73 99.048c0 .338 0 .689.013 1.027C27.643 105.988 0 136.589 0 173.333c0 40.964 34.148 74.286 75.111 74.286h272.381c40.964 0 75.111-33.322 75.111-74.286 0-37.057-28.089-67.853-63.612-73.403Z" fill="url(#a)"/><defs><linearGradient id="a" x1="211.302" y1="0" x2="211.302" y2="247.619" gradientUnits="userSpaceOnUse"><stop stop-color="#471C77"/><stop offset="1" stop-color="#310C5A"/></linearGradient></defs></svg>