<svg width="680" height="413" fill="none" xmlns="http://www.w3.org/2000/svg"><g filter="url(#a)"><path d="M565.686 165.734c-8.482-54.293-55.551-95.964-112.19-95.964-21.308 0-41.783 5.895-59.542 16.89C366.937 41.255 318.298 13 264.263 13c-83.472 0-151.385 67.913-151.385 151.386 0 .517 0 1.053.019 1.57C59.249 174.993 17 221.765 17 277.925c0 62.609 52.192 113.539 114.801 113.539h416.311c62.609 0 114.8-50.93 114.8-113.539 0-56.64-42.933-103.708-97.226-112.191Z" fill="url(#b)"/></g><defs><linearGradient id="b" x1="339.956" y1="13" x2="339.956" y2="391.464" gradientUnits="userSpaceOnUse"><stop stop-color="#471C77"/><stop offset="1" stop-color="#310C5A"/></linearGradient><filter id="a" x=".4" y=".4" width="679.112" height="411.665" filterUnits="userSpaceOnUse" color-interpolation-filters="sRGB"><feFlood flood-opacity="0" result="BackgroundImageFix"/><feColorMatrix in="SourceAlpha" values="0 0 0 0 0 0 0 0 0 0 0 0 0 0 0 0 0 0 127 0" result="hardAlpha"/><feOffset dy="4"/><feGaussianBlur stdDeviation="8.3"/><feComposite in2="hardAlpha" operator="out"/><feColorMatrix values="0 0 0 0 0 0 0 0 0 0 0 0 0 0 0 0 0 0 0.25 0"/><feBlend in2="BackgroundImageFix" result="effect1_dropShadow_2746_546"/><feBlend in="SourceGraphic" in2="effect1_dropShadow_2746_546" result="shape"/></filter></defs></svg>