<svg width="690" height="400" fill="none" xmlns="http://www.w3.org/2000/svg"><g filter="url(#a)"><path d="M591.87 137.694c-9.59-57.317-59.402-101.008-119.438-101.008a120.57 120.57 0 0 0-54.737 13.082c-16.654-17.628-40.234-28.645-66.399-28.645-24.235 0-46.251 9.456-62.604 24.856C268.358 25.606 240.244 13 209.186 13c-51.546 0-94.951 34.73-108.172 82.055C54.156 97.806 17 136.662 17 184.21c0 36.178 21.52 67.31 52.445 81.351 3.862 46.9 43.121 83.767 91.019 83.767 20.428 0 39.287-6.709 54.502-18.039 22.128 29.05 57.069 47.814 96.405 47.814 31.117 0 59.483-11.743 80.938-31.027a120.516 120.516 0 0 0 65.907 19.522c38.638 0 73.019-18.112 95.202-46.283a94.024 94.024 0 0 0 25.93 3.649c51.949 0 94.061-42.112 94.061-94.062.003-47.702-35.514-87.083-81.539-93.208Z" fill="url(#b)"/></g><defs><linearGradient id="b" x1="345.204" y1="13" x2="345.204" y2="379.103" gradientUnits="userSpaceOnUse"><stop stop-color="#471C77"/><stop offset="1" stop-color="#310C5A"/></linearGradient><filter id="a" x=".4" y=".4" width="689.608" height="399.302" filterUnits="userSpaceOnUse" color-interpolation-filters="sRGB"><feFlood flood-opacity="0" result="BackgroundImageFix"/><feColorMatrix in="SourceAlpha" values="0 0 0 0 0 0 0 0 0 0 0 0 0 0 0 0 0 0 127 0" result="hardAlpha"/><feOffset dy="4"/><feGaussianBlur stdDeviation="8.3"/><feComposite in2="hardAlpha" operator="out"/><feColorMatrix values="0 0 0 0 0 0 0 0 0 0 0 0 0 0 0 0 0 0 0.25 0"/><feBlend in2="BackgroundImageFix" result="effect1_dropShadow_2746_913"/><feBlend in="SourceGraphic" in2="effect1_dropShadow_2746_913" result="shape"/></filter></defs></svg>