<svg width="22" height="22" fill="none" xmlns="http://www.w3.org/2000/svg"><path d="M16.45 16.454a7.714 7.714 0 0 1-6.919 2.118 7.643 7.643 0 0 1-2.827-1.174l-.223-.151.267-.031 2.425-.282m7.278-.48-6.694-.144a.653.653 0 0 1-.573.724l-.011-.1m7.278-.48a7.76 7.76 0 0 0 1.824-8.01l-.094.033.094-.033a.553.553 0 0 1 1.044-.366 8.872 8.872 0 0 1-2.086 9.158 8.81 8.81 0 0 1-6.235 2.582 8.732 8.732 0 0 1-4.952-1.53l-.181-.125.025.218.273 2.352a.553.553 0 0 1-1.099.127l-.459-3.952a.553.553 0 0 1 .486-.614l3.953-.459-.01-.1.011.1a.556.556 0 0 1 .613.486m6.793.133-6.793-.133m-.485.613a.554.554 0 0 0 .485-.613m-.485.613.485-.613M5.545 5.548a7.713 7.713 0 0 1 6.92-2.118c1.021.197 1.978.6 2.829 1.173l.224.151-.269.032-2.424.281a.554.554 0 0 0 .128 1.099l3.952-.459a.553.553 0 0 0 .486-.613m-11.846.454 11.945-.466-.1.012m-11.845.454a7.76 7.76 0 0 0-1.824 8.01.553.553 0 1 1-1.044.366 8.872 8.872 0 0 1 2.086-9.159 8.82 8.82 0 0 1 7.911-2.422 8.731 8.731 0 0 1 3.276 1.37l.181.124-.025-.218-.273-2.352a.553.553 0 0 1 1.099-.127L5.545 5.548Zm11.846-.454-.46-3.954.46 3.954Z" fill="#C6F806" stroke="#2F1F42" stroke-width=".2"/></svg>