<svg width="18" height="22" fill="none" xmlns="http://www.w3.org/2000/svg"><path d="M17.413 8.044a.653.653 0 0 0-1.232.433 7.66 7.66 0 0 1-1.8 7.906 7.614 7.614 0 0 1-6.831 2.09 7.543 7.543 0 0 1-2.79-1.158l2.424-.282a.654.654 0 0 0-.15-1.297l-3.954.459a.654.654 0 0 0-.574.724l.459 3.954a.653.653 0 0 0 1.298-.15L3.99 18.37a8.832 8.832 0 0 0 5.008 1.548 8.911 8.911 0 0 0 6.306-2.611 8.972 8.972 0 0 0 2.11-9.262ZM3.616 5.618a7.613 7.613 0 0 1 6.83-2.09 7.546 7.546 0 0 1 2.792 1.158l-2.426.282a.653.653 0 0 0 .15 1.297l3.954-.459a.653.653 0 0 0 .574-.724l-.459-3.954a.653.653 0 1 0-1.298.15l.273 2.352a8.832 8.832 0 0 0-3.313-1.385 8.92 8.92 0 0 0-8 2.45 8.972 8.972 0 0 0-2.11 9.262.653.653 0 0 0 1.232-.432 7.66 7.66 0 0 1 1.801-7.907Z" fill="#C6F806"/></svg>