<svg width="112" height="112" fill="none" xmlns="http://www.w3.org/2000/svg"><path fill-rule="evenodd" clip-rule="evenodd" d="M1.458 25.257a8 8 0 0 1 6.408-9.325L85.934 1.458a8 8 0 0 1 9.325 6.408l14.474 78.068a8 8 0 0 1-6.408 9.324l-78.068 14.474a8 8 0 0 1-9.324-6.407L1.458 25.257Zm26.816 47.378a4 4 0 0 1 3.204-4.662l49.67-9.209a4 4 0 1 1 1.459 7.866l-49.67 9.21a4 4 0 0 1-4.663-3.205Zm-1.206-28.443a4 4 0 0 0 1.458 7.866l49.67-9.21a4 4 0 1 0-1.458-7.865l-49.67 9.209Z" fill="url(#a)"/><defs><linearGradient id="a" x1="46.9" y1="8.695" x2="64.291" y2="102.495" gradientUnits="userSpaceOnUse"><stop stop-color="#471C77"/><stop offset="1" stop-color="#310C5A"/></linearGradient></defs></svg>