<svg width="127" height="127" fill="none" xmlns="http://www.w3.org/2000/svg"><path fill-rule="evenodd" clip-rule="evenodd" d="M7.253 36.89a8 8 0 0 0-3.877 10.628L36.887 119.5a8 8 0 0 0 10.63 3.876l71.98-33.51a8 8 0 0 0 3.876-10.63l-33.51-71.98a8 8 0 0 0-10.63-3.877L7.253 36.89Zm31.11 34.28a4 4 0 1 0 3.376 7.253l45.797-21.32a4 4 0 1 0-3.376-7.253L38.363 71.17Z" fill="#fff"/><path fill-rule="evenodd" clip-rule="evenodd" d="M7.253 36.89a8 8 0 0 0-3.877 10.628L36.887 119.5a8 8 0 0 0 10.63 3.876l71.98-33.51a8 8 0 0 0 3.876-10.63l-33.51-71.98a8 8 0 0 0-10.63-3.877L7.253 36.89Zm31.11 34.28a4 4 0 1 0 3.376 7.253l45.797-21.32a4 4 0 1 0-3.376-7.253L38.363 71.17Z" fill="url(#a)"/><defs><linearGradient id="a" x1="43.243" y1="20.134" x2="83.506" y2="106.619" gradientUnits="userSpaceOnUse"><stop stop-color="#471C77"/><stop offset="1" stop-color="#310C5A"/></linearGradient></defs></svg>