<svg width="176" height="176" fill="none" xmlns="http://www.w3.org/2000/svg"><path fill-rule="evenodd" clip-rule="evenodd" d="M49.607 38.842a8 8 0 0 1 9.52-6.113l77.578 16.902a8 8 0 0 1 6.114 9.52l-16.902 77.578a8 8 0 0 1-9.52 6.114l-77.579-16.902a8 8 0 0 1-6.113-9.52l16.902-77.579Zm62.698 34.664a4 4 0 0 1-1.464 5.464L92.433 89.598l10.627 18.407a4 4 0 0 1-6.929 4L85.504 93.598 67.092 104.23a4 4 0 0 1-4-6.928l18.412-10.63-10.631-18.415a4 4 0 0 1 6.928-4L88.433 82.67l18.408-10.628a4 4 0 0 1 5.464 1.464Z" fill="url(#a)"/><defs><linearGradient id="a" x1="143.257" y1="55.745" x2="32.266" y2="119.826" gradientUnits="userSpaceOnUse"><stop stop-color="#471C77"/><stop offset="1" stop-color="#310C5A"/></linearGradient></defs></svg>