<svg width="114" height="114" fill="none" xmlns="http://www.w3.org/2000/svg"><path fill-rule="evenodd" clip-rule="evenodd" d="M18.606 7.817a8 8 0 0 1 9.52-6.114l77.578 16.902a8 8 0 0 1 6.114 9.52l-16.903 77.579a8 8 0 0 1-9.52 6.113L7.818 94.915a8 8 0 0 1-6.114-9.52L18.606 7.817Zm43.593 20.7a4 4 0 0 1 3.057 4.76l-4.525 20.771 20.765 4.524a4 4 0 1 1-1.703 7.817l-20.765-4.524-4.526 20.771a4 4 0 0 1-7.817-1.703l4.526-20.771-20.777-4.527a4 4 0 0 1 1.703-7.817l20.777 4.527 4.525-20.77a4 4 0 0 1 4.76-3.058Z" fill="#fff"/><path fill-rule="evenodd" clip-rule="evenodd" d="M18.606 7.817a8 8 0 0 1 9.52-6.114l77.578 16.902a8 8 0 0 1 6.114 9.52l-16.903 77.579a8 8 0 0 1-9.52 6.113L7.818 94.915a8 8 0 0 1-6.114-9.52L18.606 7.817Zm43.593 20.7a4 4 0 0 1 3.057 4.76l-4.525 20.771 20.765 4.524a4 4 0 1 1-1.703 7.817l-20.765-4.524-4.526 20.771a4 4 0 0 1-7.817-1.703l4.526-20.771-20.777-4.527a4 4 0 0 1 1.703-7.817l20.777 4.527 4.525-20.77a4 4 0 0 1 4.76-3.058Z" fill="url(#a)"/><defs><linearGradient id="a" x1="66.915" y1="10.154" x2="46.606" y2="103.366" gradientUnits="userSpaceOnUse"><stop stop-color="#471C77"/><stop offset="1" stop-color="#310C5A"/></linearGradient></defs></svg>