<svg width="85" height="68" fill="none" xmlns="http://www.w3.org/2000/svg"><path d="M36.875.543 23.912 47.678 19.59 30.003c5.63 0 10.213 1.636 13.749 4.91 3.535 3.273 5.303 7.79 5.303 13.55 0 5.63-1.833 10.213-5.5 13.749-3.535 3.404-7.987 5.106-13.356 5.106-5.5 0-10.083-1.702-13.75-5.106C2.503 58.676.735 54.094.735 48.464c0-1.702.131-3.339.393-4.91.262-1.702.786-3.666 1.572-5.892.785-2.226 1.898-5.172 3.339-8.838L17.43.543h19.445Zm46.355 0L70.267 47.678l-4.322-17.675c5.631 0 10.214 1.636 13.75 4.91 3.535 3.273 5.303 7.79 5.303 13.55 0 5.63-1.833 10.213-5.5 13.749-3.535 3.404-7.987 5.106-13.356 5.106-5.5 0-10.083-1.702-13.75-5.106-3.535-3.536-5.303-8.118-5.303-13.748 0-1.702.131-3.339.393-4.91.262-1.702.786-3.666 1.571-5.892.786-2.226 1.9-5.172 3.34-8.838L63.784.543H83.23Z" fill="#C6F806"/></svg>